<?xml version="1.0" ?><!DOCTYPE svg  PUBLIC '-//W3C//DTD SVG 1.1//EN'  'http://www.w3.org/Graphics/SVG/1.1/DTD/svg11.dtd'><svg enable-background="new 0 0 64 64" height="64px" id="Layer_1" version="1.1" viewBox="0 0 64 64" width="64px" xml:space="preserve" xmlns="http://www.w3.org/2000/svg" xmlns:xlink="http://www.w3.org/1999/xlink"><g id="dollar"><g><g><g><g><g><g><path d="M32,59C17.112,59,5,46.888,5,32S17.112,5,32,5s27,12.112,27,27S46.888,59,32,59z M32,6         C17.663,6,6,17.663,6,32s11.663,26,26,26s26-11.663,26-26S46.337,6,32,6z" fill="#37474F"/></g></g></g></g><g><g><g><g><path d="M32,55C19.317,55,9,44.683,9,32S19.317,9,32,9s23,10.317,23,23S44.683,55,32,55z M32,10         c-12.131,0-22,9.869-22,22s9.869,22,22,22s22-9.869,22-22S44.131,10,32,10z" fill="#37474F"/></g></g></g></g></g></g><g><g><g><g><g><path d="M25.419,24.012c0,2.626,2.352,3.945,4.893,4.979L31,29.271v-9.83l-0.571,0.082        C27.339,19.97,25.419,21.689,25.419,24.012z M30,27.771c-2.533-1.13-3.581-2.245-3.581-3.76c0-1.651,1.356-2.921,3.581-3.397        V27.771z" fill="#37474F"/></g></g></g><g><g><g><path d="M33,44.534l0.564-0.073c3.139-0.407,5.013-2.076,5.013-4.464c0-2.622-2.35-3.938-4.889-4.968L33,34.75        V44.534z M34,36.248c2.53,1.126,3.577,2.238,3.577,3.749c0,1.728-1.295,2.94-3.577,3.382V36.248z" fill="#37474F"/></g></g></g></g><g><g><g><path d="M34,29.295v-8.678c1.986,0.441,2.994,1.577,2.999,3.383H37h6.484c-0.165-3.682-4.469-6.984-9.484-7.305       V14h-4v2.69c-5.203,0.285-9.057,3.312-9.442,7.48c-0.625,6.733,5.083,8.971,9.442,10.552v8.633       c-2.017-0.429-2.999-1.531-3-3.355h-6.485c0.157,3.706,4.466,7.033,9.485,7.355V50h4v-2.641       c5.128-0.288,8.979-3.327,9.439-7.513C44.177,33.139,38.406,30.888,34,29.295z M42.445,39.737       c-0.419,3.805-4.102,6.536-8.956,6.642L33,46.39V49h-2v-2.61l-0.487-0.013C26.29,46.272,22.53,43.88,21.684,41h4.415       c0.291,1.497,1.349,3.028,4.332,3.445L31,44.525V34.021l-0.33-0.119c-5.299-1.918-9.643-3.966-9.116-9.64       c0.407-4.405,4.929-6.505,8.957-6.591L31,17.661V15h2v2.662l0.487,0.012c4.214,0.104,7.967,2.472,8.824,5.326h-4.423       c-0.385-1.897-1.875-3.123-4.317-3.477L33,19.441v10.557l0.33,0.119C38.684,32.046,43.064,34.102,42.445,39.737z" fill="#37474F"/></g></g></g></g></g></svg>