<svg width="25" height="25" viewBox="0 0 25 25" fill="none" xmlns="http://www.w3.org/2000/svg">
<path d="M12.3 11.4C10.03 10.81 9.30001 10.2 9.30001 9.25C9.30001 8.16 10.31 7.4 12 7.4C13.78 7.4 14.44 8.25 14.5 9.5H16.71C16.64 7.78 15.59 6.2 13.5 5.69V3.5H10.5V5.66C8.56001 6.08 7.00001 7.34 7.00001 9.27C7.00001 11.58 8.91001 12.73 11.7 13.4C14.2 14 14.7 14.88 14.7 15.81C14.7 16.5 14.21 17.6 12 17.6C9.94001 17.6 9.13001 16.68 9.02001 15.5H6.82001C6.94001 17.69 8.58001 18.92 10.5 19.33V21.5H13.5V19.35C15.45 18.98 17 17.85 17 15.8C17 12.96 14.57 11.99 12.3 11.4Z" fill="black"/>
</svg>
