<svg width="223" height="29" viewBox="0 0 223 29" fill="none" xmlns="http://www.w3.org/2000/svg">
<path d="M120 24H122L127 16H132.5C133.33 16 134 15.33 134 14.5C134 13.67 133.33 13 132.5 13H127L122 5H120L122.5 13L117 13L115.5 11H114L115 14.5L114 18H115.5L117 16H122.5L120 24Z" fill="#333333"/>
<path d="M56.9998 18.3334C58.8408 18.3334 60.3332 16.841 60.3332 15.0001C60.3332 13.1591 58.8408 11.6667 56.9998 11.6667C55.1589 11.6667 53.6665 13.1591 53.6665 15.0001C53.6665 16.841 55.1589 18.3334 56.9998 18.3334Z" fill="#333333" fill-opacity="0.83"/>
<path d="M68.9998 18.3334C70.8408 18.3334 72.3332 16.841 72.3332 15.0001C72.3332 13.1591 70.8408 11.6667 68.9998 11.6667C67.1589 11.6667 65.6665 13.1591 65.6665 15.0001C65.6665 16.841 67.1589 18.3334 68.9998 18.3334Z" fill="#333333" fill-opacity="0.83"/>
<path d="M80.9998 18.3334C82.8408 18.3334 84.3332 16.841 84.3332 15.0001C84.3332 13.1591 82.8408 11.6667 80.9998 11.6667C79.1589 11.6667 77.6665 13.1591 77.6665 15.0001C77.6665 16.841 79.1589 18.3334 80.9998 18.3334Z" fill="#333333" fill-opacity="0.83"/>
<path d="M105 18.3334C106.841 18.3334 108.333 16.841 108.333 15.0001C108.333 13.1591 106.841 11.6667 105 11.6667C103.159 11.6667 101.667 13.1591 101.667 15.0001C101.667 16.841 103.159 18.3334 105 18.3334Z" fill="#333333" fill-opacity="0.83"/>
<path d="M92.9998 18.3334C94.8408 18.3334 96.3332 16.841 96.3332 15.0001C96.3332 13.1591 94.8408 11.6667 92.9998 11.6667C91.1589 11.6667 89.6665 13.1591 89.6665 15.0001C89.6665 16.841 91.1589 18.3334 92.9998 18.3334Z" fill="#333333" fill-opacity="0.83"/>
<path d="M44.9998 18.3334C46.8408 18.3334 48.3332 16.841 48.3332 15.0001C48.3332 13.1591 46.8408 11.6667 44.9998 11.6667C43.1589 11.6667 41.6665 13.1591 41.6665 15.0001C41.6665 16.841 43.1589 18.3334 44.9998 18.3334Z" fill="#333333" fill-opacity="0.83"/>
<path d="M155 18.3334C156.841 18.3334 158.333 16.841 158.333 15.0001C158.333 13.1591 156.841 11.6667 155 11.6667C153.159 11.6667 151.667 13.1591 151.667 15.0001C151.667 16.841 153.159 18.3334 155 18.3334Z" fill="#333333" fill-opacity="0.83"/>
<path d="M32.9998 18.3334C34.8408 18.3334 36.3332 16.841 36.3332 15.0001C36.3332 13.1591 34.8408 11.6667 32.9998 11.6667C31.1589 11.6667 29.6665 13.1591 29.6665 15.0001C29.6665 16.841 31.1589 18.3334 32.9998 18.3334Z" fill="#333333" fill-opacity="0.83"/>
<path d="M167 18.3334C168.841 18.3334 170.333 16.841 170.333 15.0001C170.333 13.1591 168.841 11.6667 167 11.6667C165.159 11.6667 163.667 13.1591 163.667 15.0001C163.667 16.841 165.159 18.3334 167 18.3334Z" fill="#333333" fill-opacity="0.83"/>
<path d="M179 18.3334C180.841 18.3334 182.333 16.841 182.333 15.0001C182.333 13.1591 180.841 11.6667 179 11.6667C177.159 11.6667 175.667 13.1591 175.667 15.0001C175.667 16.841 177.159 18.3334 179 18.3334Z" fill="#333333" fill-opacity="0.83"/>
<path d="M191 18.3334C192.841 18.3334 194.333 16.841 194.333 15.0001C194.333 13.1591 192.841 11.6667 191 11.6667C189.159 11.6667 187.667 13.1591 187.667 15.0001C187.667 16.841 189.159 18.3334 191 18.3334Z" fill="#333333" fill-opacity="0.83"/>
<path d="M215 18.3334C216.841 18.3334 218.333 16.841 218.333 15.0001C218.333 13.1591 216.841 11.6667 215 11.6667C213.159 11.6667 211.667 13.1591 211.667 15.0001C211.667 16.841 213.159 18.3334 215 18.3334Z" fill="#333333" fill-opacity="0.83"/>
<path d="M203 18.3334C204.841 18.3334 206.333 16.841 206.333 15.0001C206.333 13.1591 204.841 11.6667 203 11.6667C201.159 11.6667 199.667 13.1591 199.667 15.0001C199.667 16.841 201.159 18.3334 203 18.3334Z" fill="#333333" fill-opacity="0.83"/>
<path d="M143 18.3334C144.841 18.3334 146.333 16.841 146.333 15.0001C146.333 13.1591 144.841 11.6667 143 11.6667C141.159 11.6667 139.667 13.1591 139.667 15.0001C139.667 16.841 141.159 18.3334 143 18.3334Z" fill="#333333" fill-opacity="0.83"/>
</svg>
