<svg width="289" height="44" viewBox="0 0 289 44" fill="none" xmlns="http://www.w3.org/2000/svg">
<g clip-path="url(#clip0)">
<g filter="url(#filter0_d)">
<rect y="4" width="281" height="36" rx="3" fill="#4B8CEE"/>
</g>
<path d="M33.0935 28.144C31.8935 28.144 30.8555 27.886 29.9795 27.37C29.1035 26.842 28.4255 26.092 27.9455 25.12C27.4775 24.136 27.2435 22.978 27.2435 21.646C27.2435 20.326 27.4775 19.18 27.9455 18.208C28.4255 17.224 29.1035 16.474 29.9795 15.958C30.8555 15.43 31.8935 15.166 33.0935 15.166C33.8975 15.166 34.6535 15.298 35.3615 15.562C36.0815 15.814 36.7055 16.18 37.2335 16.66C37.4255 16.84 37.5215 17.05 37.5215 17.29C37.5215 17.458 37.4735 17.608 37.3775 17.74C37.2815 17.86 37.1675 17.92 37.0355 17.92C36.8915 17.92 36.7175 17.854 36.5135 17.722C35.9015 17.242 35.3435 16.906 34.8395 16.714C34.3475 16.522 33.7775 16.426 33.1295 16.426C31.7375 16.426 30.6635 16.882 29.9075 17.794C29.1635 18.694 28.7915 19.978 28.7915 21.646C28.7915 23.326 29.1635 24.622 29.9075 25.534C30.6635 26.434 31.7375 26.884 33.1295 26.884C33.7655 26.884 34.3355 26.788 34.8395 26.596C35.3435 26.404 35.9015 26.068 36.5135 25.588C36.7175 25.456 36.8915 25.39 37.0355 25.39C37.1675 25.39 37.2815 25.45 37.3775 25.57C37.4735 25.69 37.5215 25.84 37.5215 26.02C37.5215 26.26 37.4255 26.47 37.2335 26.65C36.7055 27.13 36.0815 27.502 35.3615 27.766C34.6535 28.018 33.8975 28.144 33.0935 28.144ZM43.1374 28.126C42.3094 28.126 41.5774 27.94 40.9414 27.568C40.3174 27.196 39.8314 26.668 39.4834 25.984C39.1474 25.288 38.9794 24.484 38.9794 23.572C38.9794 22.66 39.1474 21.862 39.4834 21.178C39.8314 20.482 40.3174 19.948 40.9414 19.576C41.5774 19.204 42.3094 19.018 43.1374 19.018C43.9654 19.018 44.6974 19.204 45.3334 19.576C45.9694 19.948 46.4554 20.482 46.7914 21.178C47.1394 21.862 47.3134 22.66 47.3134 23.572C47.3134 24.484 47.1394 25.288 46.7914 25.984C46.4554 26.668 45.9694 27.196 45.3334 27.568C44.6974 27.94 43.9654 28.126 43.1374 28.126ZM43.1374 26.92C44.0014 26.92 44.6614 26.638 45.1174 26.074C45.5854 25.498 45.8194 24.664 45.8194 23.572C45.8194 22.504 45.5854 21.682 45.1174 21.106C44.6494 20.518 43.9894 20.224 43.1374 20.224C42.2854 20.224 41.6254 20.518 41.1574 21.106C40.6894 21.682 40.4554 22.504 40.4554 23.572C40.4554 24.652 40.6834 25.48 41.1394 26.056C41.6074 26.632 42.2734 26.92 43.1374 26.92ZM59.2417 19.018C61.1857 19.018 62.1577 20.176 62.1577 22.492V27.37C62.1577 27.598 62.0917 27.778 61.9597 27.91C61.8277 28.03 61.6537 28.09 61.4377 28.09C61.2217 28.09 61.0417 28.03 60.8977 27.91C60.7657 27.778 60.6997 27.598 60.6997 27.37V22.528C60.6997 21.724 60.5557 21.142 60.2677 20.782C59.9797 20.422 59.5297 20.242 58.9177 20.242C58.1857 20.242 57.6097 20.488 57.1897 20.98C56.7697 21.472 56.5597 22.138 56.5597 22.978V27.37C56.5597 27.598 56.4877 27.778 56.3437 27.91C56.2117 28.03 56.0377 28.09 55.8217 28.09C55.6057 28.09 55.4317 28.03 55.2997 27.91C55.1677 27.778 55.1017 27.598 55.1017 27.37V22.528C55.1017 21.724 54.9577 21.142 54.6697 20.782C54.3817 20.422 53.9257 20.242 53.3017 20.242C52.5817 20.242 52.0057 20.488 51.5737 20.98C51.1537 21.472 50.9437 22.138 50.9437 22.978V27.37C50.9437 27.598 50.8777 27.778 50.7457 27.91C50.6137 28.03 50.4397 28.09 50.2237 28.09C50.0077 28.09 49.8277 28.03 49.6837 27.91C49.5517 27.778 49.4857 27.598 49.4857 27.37V19.774C49.4857 19.558 49.5517 19.384 49.6837 19.252C49.8277 19.12 50.0077 19.054 50.2237 19.054C50.4277 19.054 50.5957 19.12 50.7277 19.252C50.8597 19.372 50.9257 19.54 50.9257 19.756V20.62C51.1897 20.104 51.5557 19.708 52.0237 19.432C52.4917 19.156 53.0317 19.018 53.6437 19.018C55.0117 19.018 55.9057 19.594 56.3257 20.746C56.5777 20.218 56.9617 19.798 57.4777 19.486C57.9937 19.174 58.5817 19.018 59.2417 19.018ZM69.2239 19.018C69.9919 19.018 70.6699 19.21 71.2579 19.594C71.8459 19.978 72.3019 20.518 72.6259 21.214C72.9499 21.898 73.1119 22.696 73.1119 23.608C73.1119 24.52 72.9499 25.318 72.6259 26.002C72.3019 26.674 71.8459 27.196 71.2579 27.568C70.6819 27.94 70.0039 28.126 69.2239 28.126C68.5399 28.126 67.9399 27.976 67.4239 27.676C66.9199 27.376 66.5359 26.95 66.2719 26.398V30.628C66.2719 30.844 66.2059 31.012 66.0739 31.132C65.9539 31.264 65.7799 31.33 65.5519 31.33C65.3239 31.33 65.1439 31.264 65.0119 31.132C64.8799 31 64.8139 30.832 64.8139 30.628V19.774C64.8139 19.558 64.8799 19.384 65.0119 19.252C65.1439 19.12 65.3239 19.054 65.5519 19.054C65.7799 19.054 65.9539 19.12 66.0739 19.252C66.2059 19.384 66.2719 19.558 66.2719 19.774V20.746C66.5359 20.194 66.9199 19.768 67.4239 19.468C67.9399 19.168 68.5399 19.018 69.2239 19.018ZM68.9359 26.92C69.7879 26.92 70.4479 26.632 70.9159 26.056C71.3839 25.48 71.6179 24.664 71.6179 23.608C71.6179 22.552 71.3839 21.73 70.9159 21.142C70.4479 20.542 69.7879 20.242 68.9359 20.242C68.0839 20.242 67.4239 20.53 66.9559 21.106C66.4999 21.682 66.2719 22.504 66.2719 23.572C66.2719 24.64 66.4999 25.468 66.9559 26.056C67.4239 26.632 68.0839 26.92 68.9359 26.92ZM79.6284 19.054C80.1324 19.018 80.3844 19.222 80.3844 19.666C80.3844 19.858 80.3304 20.014 80.2224 20.134C80.1144 20.242 79.9284 20.308 79.6644 20.332L79.1244 20.386C78.3204 20.458 77.7204 20.746 77.3244 21.25C76.9404 21.742 76.7484 22.324 76.7484 22.996V27.37C76.7484 27.61 76.6824 27.79 76.5504 27.91C76.4184 28.03 76.2444 28.09 76.0284 28.09C75.8124 28.09 75.6324 28.03 75.4884 27.91C75.3564 27.778 75.2904 27.598 75.2904 27.37V19.774C75.2904 19.546 75.3624 19.372 75.5064 19.252C75.6504 19.12 75.8244 19.054 76.0284 19.054C76.2204 19.054 76.3824 19.12 76.5144 19.252C76.6464 19.372 76.7124 19.54 76.7124 19.756V20.764C76.9644 20.236 77.3184 19.834 77.7744 19.558C78.2424 19.282 78.7764 19.12 79.3764 19.072L79.6284 19.054ZM85.1478 19.018C87.3438 19.018 88.4418 20.17 88.4418 22.474V27.37C88.4418 27.586 88.3758 27.76 88.2438 27.892C88.1238 28.024 87.9558 28.09 87.7398 28.09C87.5238 28.09 87.3498 28.024 87.2178 27.892C87.0858 27.76 87.0198 27.586 87.0198 27.37V26.506C86.7918 27.022 86.4438 27.424 85.9758 27.712C85.5078 27.988 84.9678 28.126 84.3558 28.126C83.7918 28.126 83.2698 28.012 82.7898 27.784C82.3218 27.556 81.9498 27.238 81.6738 26.83C81.3978 26.422 81.2598 25.972 81.2598 25.48C81.2598 24.82 81.4278 24.31 81.7638 23.95C82.0998 23.578 82.6518 23.314 83.4198 23.158C84.1878 22.99 85.2558 22.906 86.6238 22.906H87.0198V22.312C87.0198 21.592 86.8698 21.064 86.5698 20.728C86.2818 20.392 85.8078 20.224 85.1478 20.224C84.3318 20.224 83.5038 20.446 82.6638 20.89C82.3398 21.094 82.1118 21.196 81.9798 21.196C81.8358 21.196 81.7158 21.142 81.6198 21.034C81.5238 20.926 81.4758 20.788 81.4758 20.62C81.4758 20.452 81.5238 20.308 81.6198 20.188C81.7278 20.056 81.8958 19.924 82.1238 19.792C82.5438 19.552 83.0178 19.366 83.5458 19.234C84.0858 19.09 84.6198 19.018 85.1478 19.018ZM84.5538 26.974C85.2738 26.974 85.8618 26.734 86.3178 26.254C86.7858 25.762 87.0198 25.132 87.0198 24.364V23.842H86.6958C85.6398 23.842 84.8358 23.89 84.2838 23.986C83.7318 24.07 83.3358 24.22 83.0958 24.436C82.8678 24.64 82.7538 24.946 82.7538 25.354C82.7538 25.822 82.9218 26.212 83.2578 26.524C83.6058 26.824 84.0378 26.974 84.5538 26.974ZM95.4487 19.054C95.9527 19.018 96.2047 19.222 96.2047 19.666C96.2047 19.858 96.1507 20.014 96.0427 20.134C95.9347 20.242 95.7487 20.308 95.4847 20.332L94.9447 20.386C94.1407 20.458 93.5407 20.746 93.1447 21.25C92.7607 21.742 92.5687 22.324 92.5687 22.996V27.37C92.5687 27.61 92.5027 27.79 92.3707 27.91C92.2387 28.03 92.0647 28.09 91.8487 28.09C91.6327 28.09 91.4527 28.03 91.3087 27.91C91.1767 27.778 91.1107 27.598 91.1107 27.37V19.774C91.1107 19.546 91.1827 19.372 91.3267 19.252C91.4707 19.12 91.6447 19.054 91.8487 19.054C92.0407 19.054 92.2027 19.12 92.3347 19.252C92.4667 19.372 92.5327 19.54 92.5327 19.756V20.764C92.7847 20.236 93.1387 19.834 93.5947 19.558C94.0627 19.282 94.5967 19.12 95.1967 19.072L95.4487 19.054ZM105.715 28.126C104.899 28.126 104.173 27.94 103.537 27.568C102.913 27.196 102.427 26.668 102.079 25.984C101.743 25.3 101.575 24.508 101.575 23.608C101.575 22.708 101.749 21.91 102.097 21.214C102.457 20.518 102.955 19.978 103.591 19.594C104.227 19.21 104.959 19.018 105.787 19.018C106.243 19.018 106.693 19.084 107.137 19.216C107.593 19.336 107.989 19.516 108.325 19.756C108.541 19.9 108.691 20.044 108.775 20.188C108.871 20.32 108.919 20.47 108.919 20.638C108.919 20.806 108.871 20.944 108.775 21.052C108.691 21.16 108.577 21.214 108.433 21.214C108.349 21.214 108.259 21.19 108.163 21.142C108.067 21.094 107.983 21.046 107.911 20.998C107.851 20.95 107.809 20.92 107.785 20.908C107.473 20.704 107.173 20.542 106.885 20.422C106.609 20.302 106.267 20.242 105.859 20.242C104.983 20.242 104.299 20.542 103.807 21.142C103.327 21.73 103.087 22.552 103.087 23.608C103.087 24.664 103.327 25.48 103.807 26.056C104.299 26.632 104.983 26.92 105.859 26.92C106.267 26.92 106.615 26.86 106.903 26.74C107.203 26.62 107.503 26.458 107.803 26.254C107.935 26.17 108.061 26.098 108.181 26.038C108.301 25.978 108.403 25.948 108.487 25.948C108.619 25.948 108.727 26.002 108.811 26.11C108.907 26.218 108.955 26.356 108.955 26.524C108.955 26.68 108.913 26.824 108.829 26.956C108.745 27.076 108.589 27.214 108.361 27.37C108.025 27.598 107.617 27.784 107.137 27.928C106.669 28.06 106.195 28.126 105.715 28.126ZM114.346 28.126C113.518 28.126 112.786 27.94 112.15 27.568C111.526 27.196 111.04 26.668 110.692 25.984C110.356 25.288 110.188 24.484 110.188 23.572C110.188 22.66 110.356 21.862 110.692 21.178C111.04 20.482 111.526 19.948 112.15 19.576C112.786 19.204 113.518 19.018 114.346 19.018C115.174 19.018 115.906 19.204 116.542 19.576C117.178 19.948 117.664 20.482 118 21.178C118.348 21.862 118.522 22.66 118.522 23.572C118.522 24.484 118.348 25.288 118 25.984C117.664 26.668 117.178 27.196 116.542 27.568C115.906 27.94 115.174 28.126 114.346 28.126ZM114.346 26.92C115.21 26.92 115.87 26.638 116.326 26.074C116.794 25.498 117.028 24.664 117.028 23.572C117.028 22.504 116.794 21.682 116.326 21.106C115.858 20.518 115.198 20.224 114.346 20.224C113.494 20.224 112.834 20.518 112.366 21.106C111.898 21.682 111.664 22.504 111.664 23.572C111.664 24.652 111.892 25.48 112.348 26.056C112.816 26.632 113.482 26.92 114.346 26.92ZM130.451 19.018C132.395 19.018 133.367 20.176 133.367 22.492V27.37C133.367 27.598 133.301 27.778 133.169 27.91C133.037 28.03 132.863 28.09 132.647 28.09C132.431 28.09 132.251 28.03 132.107 27.91C131.975 27.778 131.909 27.598 131.909 27.37V22.528C131.909 21.724 131.765 21.142 131.477 20.782C131.189 20.422 130.739 20.242 130.127 20.242C129.395 20.242 128.819 20.488 128.399 20.98C127.979 21.472 127.769 22.138 127.769 22.978V27.37C127.769 27.598 127.697 27.778 127.553 27.91C127.421 28.03 127.247 28.09 127.031 28.09C126.815 28.09 126.641 28.03 126.509 27.91C126.377 27.778 126.311 27.598 126.311 27.37V22.528C126.311 21.724 126.167 21.142 125.879 20.782C125.591 20.422 125.135 20.242 124.511 20.242C123.791 20.242 123.215 20.488 122.783 20.98C122.363 21.472 122.153 22.138 122.153 22.978V27.37C122.153 27.598 122.087 27.778 121.955 27.91C121.823 28.03 121.649 28.09 121.433 28.09C121.217 28.09 121.037 28.03 120.893 27.91C120.761 27.778 120.695 27.598 120.695 27.37V19.774C120.695 19.558 120.761 19.384 120.893 19.252C121.037 19.12 121.217 19.054 121.433 19.054C121.637 19.054 121.805 19.12 121.937 19.252C122.069 19.372 122.135 19.54 122.135 19.756V20.62C122.399 20.104 122.765 19.708 123.233 19.432C123.701 19.156 124.241 19.018 124.853 19.018C126.221 19.018 127.115 19.594 127.535 20.746C127.787 20.218 128.171 19.798 128.687 19.486C129.203 19.174 129.791 19.018 130.451 19.018ZM152.147 15.22C152.375 15.22 152.549 15.292 152.669 15.436C152.801 15.568 152.867 15.748 152.867 15.976V27.37C152.867 27.586 152.807 27.76 152.687 27.892C152.567 28.024 152.399 28.09 152.183 28.09C151.967 28.09 151.805 28.024 151.697 27.892C151.589 27.76 151.535 27.586 151.535 27.37V18.172L147.629 25.66C147.461 26.008 147.215 26.182 146.891 26.182C146.579 26.182 146.333 26.008 146.153 25.66L142.229 18.262V27.37C142.229 27.586 142.169 27.76 142.049 27.892C141.941 28.024 141.779 28.09 141.563 28.09C141.347 28.09 141.179 28.024 141.059 27.892C140.939 27.76 140.879 27.586 140.879 27.37V15.976C140.879 15.748 140.945 15.568 141.077 15.436C141.209 15.292 141.389 15.22 141.617 15.22C141.917 15.22 142.157 15.394 142.337 15.742L146.909 24.508L151.427 15.742C151.523 15.55 151.625 15.418 151.733 15.346C151.853 15.262 151.991 15.22 152.147 15.22ZM162.584 25.966C162.716 25.966 162.83 26.02 162.926 26.128C163.022 26.236 163.07 26.374 163.07 26.542C163.07 26.842 162.86 27.118 162.44 27.37C162.008 27.622 161.552 27.814 161.072 27.946C160.592 28.066 160.124 28.126 159.668 28.126C158.312 28.126 157.238 27.724 156.446 26.92C155.666 26.116 155.276 25.006 155.276 23.59C155.276 22.69 155.45 21.898 155.798 21.214C156.146 20.518 156.632 19.978 157.256 19.594C157.892 19.21 158.612 19.018 159.416 19.018C160.556 19.018 161.462 19.39 162.134 20.134C162.806 20.878 163.142 21.886 163.142 23.158C163.142 23.398 163.094 23.572 162.998 23.68C162.902 23.788 162.746 23.842 162.53 23.842H156.734C156.842 25.906 157.82 26.938 159.668 26.938C160.136 26.938 160.538 26.878 160.874 26.758C161.21 26.626 161.57 26.452 161.954 26.236C162.266 26.056 162.476 25.966 162.584 25.966ZM159.434 20.152C158.666 20.152 158.048 20.392 157.58 20.872C157.124 21.352 156.854 22.03 156.77 22.906H161.864C161.84 22.018 161.618 21.34 161.198 20.872C160.778 20.392 160.19 20.152 159.434 20.152ZM169.628 19.054C170.132 19.018 170.384 19.222 170.384 19.666C170.384 19.858 170.33 20.014 170.222 20.134C170.114 20.242 169.928 20.308 169.664 20.332L169.124 20.386C168.32 20.458 167.72 20.746 167.324 21.25C166.94 21.742 166.748 22.324 166.748 22.996V27.37C166.748 27.61 166.682 27.79 166.55 27.91C166.418 28.03 166.244 28.09 166.028 28.09C165.812 28.09 165.632 28.03 165.488 27.91C165.356 27.778 165.29 27.598 165.29 27.37V19.774C165.29 19.546 165.362 19.372 165.506 19.252C165.65 19.12 165.824 19.054 166.028 19.054C166.22 19.054 166.382 19.12 166.514 19.252C166.646 19.372 166.712 19.54 166.712 19.756V20.764C166.964 20.236 167.318 19.834 167.774 19.558C168.242 19.282 168.776 19.12 169.376 19.072L169.628 19.054ZM175.078 28.126C174.262 28.126 173.536 27.94 172.9 27.568C172.276 27.196 171.79 26.668 171.442 25.984C171.106 25.3 170.938 24.508 170.938 23.608C170.938 22.708 171.112 21.91 171.46 21.214C171.82 20.518 172.318 19.978 172.954 19.594C173.59 19.21 174.322 19.018 175.15 19.018C175.606 19.018 176.056 19.084 176.5 19.216C176.956 19.336 177.352 19.516 177.688 19.756C177.904 19.9 178.054 20.044 178.138 20.188C178.234 20.32 178.282 20.47 178.282 20.638C178.282 20.806 178.234 20.944 178.138 21.052C178.054 21.16 177.94 21.214 177.796 21.214C177.712 21.214 177.622 21.19 177.526 21.142C177.43 21.094 177.346 21.046 177.274 20.998C177.214 20.95 177.172 20.92 177.148 20.908C176.836 20.704 176.536 20.542 176.248 20.422C175.972 20.302 175.63 20.242 175.222 20.242C174.346 20.242 173.662 20.542 173.17 21.142C172.69 21.73 172.45 22.552 172.45 23.608C172.45 24.664 172.69 25.48 173.17 26.056C173.662 26.632 174.346 26.92 175.222 26.92C175.63 26.92 175.978 26.86 176.266 26.74C176.566 26.62 176.866 26.458 177.166 26.254C177.298 26.17 177.424 26.098 177.544 26.038C177.664 25.978 177.766 25.948 177.85 25.948C177.982 25.948 178.09 26.002 178.174 26.11C178.27 26.218 178.318 26.356 178.318 26.524C178.318 26.68 178.276 26.824 178.192 26.956C178.108 27.076 177.952 27.214 177.724 27.37C177.388 27.598 176.98 27.784 176.5 27.928C176.032 28.06 175.558 28.126 175.078 28.126ZM183.656 19.018C185.852 19.018 186.95 20.17 186.95 22.474V27.37C186.95 27.586 186.884 27.76 186.752 27.892C186.632 28.024 186.464 28.09 186.248 28.09C186.032 28.09 185.858 28.024 185.726 27.892C185.594 27.76 185.528 27.586 185.528 27.37V26.506C185.3 27.022 184.952 27.424 184.484 27.712C184.016 27.988 183.476 28.126 182.864 28.126C182.3 28.126 181.778 28.012 181.298 27.784C180.83 27.556 180.458 27.238 180.182 26.83C179.906 26.422 179.768 25.972 179.768 25.48C179.768 24.82 179.936 24.31 180.272 23.95C180.608 23.578 181.16 23.314 181.928 23.158C182.696 22.99 183.764 22.906 185.132 22.906H185.528V22.312C185.528 21.592 185.378 21.064 185.078 20.728C184.79 20.392 184.316 20.224 183.656 20.224C182.84 20.224 182.012 20.446 181.172 20.89C180.848 21.094 180.62 21.196 180.488 21.196C180.344 21.196 180.224 21.142 180.128 21.034C180.032 20.926 179.984 20.788 179.984 20.62C179.984 20.452 180.032 20.308 180.128 20.188C180.236 20.056 180.404 19.924 180.632 19.792C181.052 19.552 181.526 19.366 182.054 19.234C182.594 19.09 183.128 19.018 183.656 19.018ZM183.062 26.974C183.782 26.974 184.37 26.734 184.826 26.254C185.294 25.762 185.528 25.132 185.528 24.364V23.842H185.204C184.148 23.842 183.344 23.89 182.792 23.986C182.24 24.07 181.844 24.22 181.604 24.436C181.376 24.64 181.262 24.946 181.262 25.354C181.262 25.822 181.43 26.212 181.766 26.524C182.114 26.824 182.546 26.974 183.062 26.974ZM196.657 15.22C196.885 15.22 197.065 15.286 197.197 15.418C197.329 15.55 197.395 15.718 197.395 15.922V27.37C197.395 27.586 197.329 27.76 197.197 27.892C197.065 28.024 196.885 28.09 196.657 28.09C196.429 28.09 196.249 28.024 196.117 27.892C195.997 27.76 195.937 27.586 195.937 27.37V26.398C195.673 26.95 195.283 27.376 194.767 27.676C194.263 27.976 193.669 28.126 192.985 28.126C192.217 28.126 191.539 27.934 190.951 27.55C190.363 27.166 189.907 26.632 189.583 25.948C189.259 25.252 189.097 24.448 189.097 23.536C189.097 22.636 189.259 21.844 189.583 21.16C189.907 20.476 190.363 19.948 190.951 19.576C191.539 19.204 192.217 19.018 192.985 19.018C193.669 19.018 194.263 19.168 194.767 19.468C195.283 19.768 195.673 20.194 195.937 20.746V15.922C195.937 15.706 195.997 15.538 196.117 15.418C196.249 15.286 196.429 15.22 196.657 15.22ZM193.273 26.92C194.125 26.92 194.779 26.632 195.235 26.056C195.703 25.468 195.937 24.64 195.937 23.572C195.937 22.504 195.703 21.682 195.235 21.106C194.779 20.53 194.125 20.242 193.273 20.242C192.421 20.242 191.755 20.53 191.275 21.106C190.807 21.682 190.573 22.492 190.573 23.536C190.573 24.604 190.807 25.438 191.275 26.038C191.755 26.626 192.421 26.92 193.273 26.92ZM203.731 28.126C202.903 28.126 202.171 27.94 201.535 27.568C200.911 27.196 200.425 26.668 200.077 25.984C199.741 25.288 199.573 24.484 199.573 23.572C199.573 22.66 199.741 21.862 200.077 21.178C200.425 20.482 200.911 19.948 201.535 19.576C202.171 19.204 202.903 19.018 203.731 19.018C204.559 19.018 205.291 19.204 205.927 19.576C206.563 19.948 207.049 20.482 207.385 21.178C207.733 21.862 207.907 22.66 207.907 23.572C207.907 24.484 207.733 25.288 207.385 25.984C207.049 26.668 206.563 27.196 205.927 27.568C205.291 27.94 204.559 28.126 203.731 28.126ZM203.731 26.92C204.595 26.92 205.255 26.638 205.711 26.074C206.179 25.498 206.413 24.664 206.413 23.572C206.413 22.504 206.179 21.682 205.711 21.106C205.243 20.518 204.583 20.224 203.731 20.224C202.879 20.224 202.219 20.518 201.751 21.106C201.283 21.682 201.049 22.504 201.049 23.572C201.049 24.652 201.277 25.48 201.733 26.056C202.201 26.632 202.867 26.92 203.731 26.92ZM215.674 28.09C215.446 28.09 215.266 28.024 215.134 27.892C215.002 27.748 214.936 27.562 214.936 27.334V16.03C214.936 15.814 215.002 15.64 215.134 15.508C215.278 15.376 215.464 15.31 215.692 15.31H219.958C221.29 15.31 222.322 15.634 223.054 16.282C223.798 16.93 224.17 17.848 224.17 19.036C224.17 20.224 223.798 21.148 223.054 21.808C222.31 22.468 221.278 22.798 219.958 22.798H216.412V27.334C216.412 27.562 216.346 27.748 216.214 27.892C216.082 28.024 215.902 28.09 215.674 28.09ZM219.814 21.574C221.746 21.574 222.712 20.728 222.712 19.036C222.712 17.368 221.746 16.534 219.814 16.534H216.412V21.574H219.814ZM229.71 19.018C231.906 19.018 233.004 20.17 233.004 22.474V27.37C233.004 27.586 232.938 27.76 232.806 27.892C232.686 28.024 232.518 28.09 232.302 28.09C232.086 28.09 231.912 28.024 231.78 27.892C231.648 27.76 231.582 27.586 231.582 27.37V26.506C231.354 27.022 231.006 27.424 230.538 27.712C230.07 27.988 229.53 28.126 228.918 28.126C228.354 28.126 227.832 28.012 227.352 27.784C226.884 27.556 226.512 27.238 226.236 26.83C225.96 26.422 225.822 25.972 225.822 25.48C225.822 24.82 225.99 24.31 226.326 23.95C226.662 23.578 227.214 23.314 227.982 23.158C228.75 22.99 229.818 22.906 231.186 22.906H231.582V22.312C231.582 21.592 231.432 21.064 231.132 20.728C230.844 20.392 230.37 20.224 229.71 20.224C228.894 20.224 228.066 20.446 227.226 20.89C226.902 21.094 226.674 21.196 226.542 21.196C226.398 21.196 226.278 21.142 226.182 21.034C226.086 20.926 226.038 20.788 226.038 20.62C226.038 20.452 226.086 20.308 226.182 20.188C226.29 20.056 226.458 19.924 226.686 19.792C227.106 19.552 227.58 19.366 228.108 19.234C228.648 19.09 229.182 19.018 229.71 19.018ZM229.116 26.974C229.836 26.974 230.424 26.734 230.88 26.254C231.348 25.762 231.582 25.132 231.582 24.364V23.842H231.258C230.202 23.842 229.398 23.89 228.846 23.986C228.294 24.07 227.898 24.22 227.658 24.436C227.43 24.64 227.316 24.946 227.316 25.354C227.316 25.822 227.484 26.212 227.82 26.524C228.168 26.824 228.6 26.974 229.116 26.974ZM242.783 19.054C243.011 19.054 243.191 19.12 243.323 19.252C243.455 19.384 243.521 19.558 243.521 19.774V27.406C243.521 28.714 243.185 29.698 242.513 30.358C241.841 31.03 240.845 31.366 239.525 31.366C238.241 31.366 237.173 31.114 236.321 30.61C235.889 30.37 235.673 30.094 235.673 29.782C235.673 29.614 235.715 29.476 235.799 29.368C235.895 29.26 236.015 29.206 236.159 29.206C236.279 29.206 236.495 29.29 236.807 29.458C237.227 29.674 237.641 29.848 238.049 29.98C238.457 30.112 238.943 30.178 239.507 30.178C240.359 30.178 241.001 29.95 241.433 29.494C241.865 29.05 242.081 28.396 242.081 27.532V25.984C241.829 26.548 241.439 26.98 240.911 27.28C240.395 27.58 239.783 27.73 239.075 27.73C238.307 27.73 237.623 27.55 237.023 27.19C236.435 26.83 235.973 26.32 235.637 25.66C235.313 25 235.151 24.238 235.151 23.374C235.151 22.51 235.313 21.748 235.637 21.088C235.973 20.428 236.435 19.918 237.023 19.558C237.623 19.198 238.307 19.018 239.075 19.018C239.771 19.018 240.377 19.168 240.893 19.468C241.409 19.768 241.799 20.194 242.063 20.746V19.774C242.063 19.558 242.123 19.384 242.243 19.252C242.375 19.12 242.555 19.054 242.783 19.054ZM239.363 26.524C240.203 26.524 240.863 26.248 241.343 25.696C241.823 25.132 242.063 24.358 242.063 23.374C242.063 22.402 241.823 21.64 241.343 21.088C240.875 20.524 240.215 20.242 239.363 20.242C238.511 20.242 237.839 20.524 237.347 21.088C236.867 21.64 236.627 22.402 236.627 23.374C236.627 24.358 236.867 25.132 237.347 25.696C237.839 26.248 238.511 26.524 239.363 26.524ZM249.856 28.126C249.028 28.126 248.296 27.94 247.66 27.568C247.036 27.196 246.55 26.668 246.202 25.984C245.866 25.288 245.698 24.484 245.698 23.572C245.698 22.66 245.866 21.862 246.202 21.178C246.55 20.482 247.036 19.948 247.66 19.576C248.296 19.204 249.028 19.018 249.856 19.018C250.684 19.018 251.416 19.204 252.052 19.576C252.688 19.948 253.174 20.482 253.51 21.178C253.858 21.862 254.032 22.66 254.032 23.572C254.032 24.484 253.858 25.288 253.51 25.984C253.174 26.668 252.688 27.196 252.052 27.568C251.416 27.94 250.684 28.126 249.856 28.126ZM249.856 26.92C250.72 26.92 251.38 26.638 251.836 26.074C252.304 25.498 252.538 24.664 252.538 23.572C252.538 22.504 252.304 21.682 251.836 21.106C251.368 20.518 250.708 20.224 249.856 20.224C249.004 20.224 248.344 20.518 247.876 21.106C247.408 21.682 247.174 22.504 247.174 23.572C247.174 24.652 247.402 25.48 247.858 26.056C248.326 26.632 248.992 26.92 249.856 26.92Z" fill="white"/>
</g>
<defs>
<filter id="filter0_d" x="-2" y="2" width="289" height="44" filterUnits="userSpaceOnUse" color-interpolation-filters="sRGB">
<feFlood flood-opacity="0" result="BackgroundImageFix"/>
<feColorMatrix in="SourceAlpha" type="matrix" values="0 0 0 0 0 0 0 0 0 0 0 0 0 0 0 0 0 0 127 0"/>
<feOffset dx="2" dy="2"/>
<feGaussianBlur stdDeviation="2"/>
<feColorMatrix type="matrix" values="0 0 0 0 0 0 0 0 0 0 0 0 0 0 0 0 0 0 0.25 0"/>
<feBlend mode="normal" in2="BackgroundImageFix" result="effect1_dropShadow"/>
<feBlend mode="normal" in="SourceGraphic" in2="effect1_dropShadow" result="shape"/>
</filter>
<clipPath id="clip0">
<rect width="289" height="44" fill="white"/>
</clipPath>
</defs>
</svg>
