<svg width="289" height="44" viewBox="0 0 289 44" fill="none" xmlns="http://www.w3.org/2000/svg">
<g clip-path="url(#clip0)">
<g filter="url(#filter0_d)">
<rect y="4" width="281" height="36" rx="3" fill="#2AA42F"/>
</g>
<path d="M59.0652 28.144C57.8652 28.144 56.8272 27.886 55.9512 27.37C55.0752 26.842 54.3972 26.092 53.9172 25.12C53.4492 24.136 53.2152 22.978 53.2152 21.646C53.2152 20.326 53.4492 19.18 53.9172 18.208C54.3972 17.224 55.0752 16.474 55.9512 15.958C56.8272 15.43 57.8652 15.166 59.0652 15.166C59.8692 15.166 60.6252 15.298 61.3332 15.562C62.0532 15.814 62.6772 16.18 63.2052 16.66C63.3972 16.84 63.4932 17.05 63.4932 17.29C63.4932 17.458 63.4452 17.608 63.3492 17.74C63.2532 17.86 63.1392 17.92 63.0072 17.92C62.8632 17.92 62.6892 17.854 62.4852 17.722C61.8732 17.242 61.3152 16.906 60.8112 16.714C60.3192 16.522 59.7492 16.426 59.1012 16.426C57.7092 16.426 56.6352 16.882 55.8792 17.794C55.1352 18.694 54.7632 19.978 54.7632 21.646C54.7632 23.326 55.1352 24.622 55.8792 25.534C56.6352 26.434 57.7092 26.884 59.1012 26.884C59.7372 26.884 60.3072 26.788 60.8112 26.596C61.3152 26.404 61.8732 26.068 62.4852 25.588C62.6892 25.456 62.8632 25.39 63.0072 25.39C63.1392 25.39 63.2532 25.45 63.3492 25.57C63.4452 25.69 63.4932 25.84 63.4932 26.02C63.4932 26.26 63.3972 26.47 63.2052 26.65C62.6772 27.13 62.0532 27.502 61.3332 27.766C60.6252 28.018 59.8692 28.144 59.0652 28.144ZM69.109 28.126C68.281 28.126 67.549 27.94 66.913 27.568C66.289 27.196 65.803 26.668 65.455 25.984C65.119 25.288 64.951 24.484 64.951 23.572C64.951 22.66 65.119 21.862 65.455 21.178C65.803 20.482 66.289 19.948 66.913 19.576C67.549 19.204 68.281 19.018 69.109 19.018C69.937 19.018 70.669 19.204 71.305 19.576C71.941 19.948 72.427 20.482 72.763 21.178C73.111 21.862 73.285 22.66 73.285 23.572C73.285 24.484 73.111 25.288 72.763 25.984C72.427 26.668 71.941 27.196 71.305 27.568C70.669 27.94 69.937 28.126 69.109 28.126ZM69.109 26.92C69.973 26.92 70.633 26.638 71.089 26.074C71.557 25.498 71.791 24.664 71.791 23.572C71.791 22.504 71.557 21.682 71.089 21.106C70.621 20.518 69.961 20.224 69.109 20.224C68.257 20.224 67.597 20.518 67.129 21.106C66.661 21.682 66.427 22.504 66.427 23.572C66.427 24.652 66.655 25.48 67.111 26.056C67.579 26.632 68.245 26.92 69.109 26.92ZM85.2134 19.018C87.1574 19.018 88.1294 20.176 88.1294 22.492V27.37C88.1294 27.598 88.0634 27.778 87.9314 27.91C87.7994 28.03 87.6254 28.09 87.4094 28.09C87.1934 28.09 87.0134 28.03 86.8694 27.91C86.7374 27.778 86.6714 27.598 86.6714 27.37V22.528C86.6714 21.724 86.5274 21.142 86.2394 20.782C85.9514 20.422 85.5014 20.242 84.8894 20.242C84.1574 20.242 83.5814 20.488 83.1614 20.98C82.7414 21.472 82.5314 22.138 82.5314 22.978V27.37C82.5314 27.598 82.4594 27.778 82.3154 27.91C82.1834 28.03 82.0094 28.09 81.7934 28.09C81.5774 28.09 81.4034 28.03 81.2714 27.91C81.1394 27.778 81.0734 27.598 81.0734 27.37V22.528C81.0734 21.724 80.9294 21.142 80.6414 20.782C80.3534 20.422 79.8974 20.242 79.2734 20.242C78.5534 20.242 77.9774 20.488 77.5454 20.98C77.1254 21.472 76.9154 22.138 76.9154 22.978V27.37C76.9154 27.598 76.8494 27.778 76.7174 27.91C76.5854 28.03 76.4114 28.09 76.1954 28.09C75.9794 28.09 75.7994 28.03 75.6554 27.91C75.5234 27.778 75.4574 27.598 75.4574 27.37V19.774C75.4574 19.558 75.5234 19.384 75.6554 19.252C75.7994 19.12 75.9794 19.054 76.1954 19.054C76.3994 19.054 76.5674 19.12 76.6994 19.252C76.8314 19.372 76.8974 19.54 76.8974 19.756V20.62C77.1614 20.104 77.5274 19.708 77.9954 19.432C78.4634 19.156 79.0034 19.018 79.6154 19.018C80.9834 19.018 81.8774 19.594 82.2974 20.746C82.5494 20.218 82.9334 19.798 83.4494 19.486C83.9654 19.174 84.5534 19.018 85.2134 19.018ZM95.1955 19.018C95.9635 19.018 96.6415 19.21 97.2295 19.594C97.8175 19.978 98.2735 20.518 98.5975 21.214C98.9215 21.898 99.0835 22.696 99.0835 23.608C99.0835 24.52 98.9215 25.318 98.5975 26.002C98.2735 26.674 97.8175 27.196 97.2295 27.568C96.6535 27.94 95.9755 28.126 95.1955 28.126C94.5115 28.126 93.9115 27.976 93.3955 27.676C92.8915 27.376 92.5075 26.95 92.2435 26.398V30.628C92.2435 30.844 92.1775 31.012 92.0455 31.132C91.9255 31.264 91.7515 31.33 91.5235 31.33C91.2955 31.33 91.1155 31.264 90.9835 31.132C90.8515 31 90.7855 30.832 90.7855 30.628V19.774C90.7855 19.558 90.8515 19.384 90.9835 19.252C91.1155 19.12 91.2955 19.054 91.5235 19.054C91.7515 19.054 91.9255 19.12 92.0455 19.252C92.1775 19.384 92.2435 19.558 92.2435 19.774V20.746C92.5075 20.194 92.8915 19.768 93.3955 19.468C93.9115 19.168 94.5115 19.018 95.1955 19.018ZM94.9075 26.92C95.7595 26.92 96.4195 26.632 96.8875 26.056C97.3555 25.48 97.5895 24.664 97.5895 23.608C97.5895 22.552 97.3555 21.73 96.8875 21.142C96.4195 20.542 95.7595 20.242 94.9075 20.242C94.0555 20.242 93.3955 20.53 92.9275 21.106C92.4715 21.682 92.2435 22.504 92.2435 23.572C92.2435 24.64 92.4715 25.468 92.9275 26.056C93.3955 26.632 94.0555 26.92 94.9075 26.92ZM105.6 19.054C106.104 19.018 106.356 19.222 106.356 19.666C106.356 19.858 106.302 20.014 106.194 20.134C106.086 20.242 105.9 20.308 105.636 20.332L105.096 20.386C104.292 20.458 103.692 20.746 103.296 21.25C102.912 21.742 102.72 22.324 102.72 22.996V27.37C102.72 27.61 102.654 27.79 102.522 27.91C102.39 28.03 102.216 28.09 102 28.09C101.784 28.09 101.604 28.03 101.46 27.91C101.328 27.778 101.262 27.598 101.262 27.37V19.774C101.262 19.546 101.334 19.372 101.478 19.252C101.622 19.12 101.796 19.054 102 19.054C102.192 19.054 102.354 19.12 102.486 19.252C102.618 19.372 102.684 19.54 102.684 19.756V20.764C102.936 20.236 103.29 19.834 103.746 19.558C104.214 19.282 104.748 19.12 105.348 19.072L105.6 19.054ZM111.12 19.018C113.316 19.018 114.414 20.17 114.414 22.474V27.37C114.414 27.586 114.348 27.76 114.216 27.892C114.096 28.024 113.928 28.09 113.712 28.09C113.496 28.09 113.322 28.024 113.19 27.892C113.058 27.76 112.992 27.586 112.992 27.37V26.506C112.764 27.022 112.416 27.424 111.948 27.712C111.48 27.988 110.94 28.126 110.328 28.126C109.764 28.126 109.242 28.012 108.762 27.784C108.294 27.556 107.922 27.238 107.646 26.83C107.37 26.422 107.232 25.972 107.232 25.48C107.232 24.82 107.4 24.31 107.736 23.95C108.072 23.578 108.624 23.314 109.392 23.158C110.16 22.99 111.228 22.906 112.596 22.906H112.992V22.312C112.992 21.592 112.842 21.064 112.542 20.728C112.254 20.392 111.78 20.224 111.12 20.224C110.304 20.224 109.476 20.446 108.636 20.89C108.312 21.094 108.084 21.196 107.952 21.196C107.808 21.196 107.688 21.142 107.592 21.034C107.496 20.926 107.448 20.788 107.448 20.62C107.448 20.452 107.496 20.308 107.592 20.188C107.7 20.056 107.868 19.924 108.096 19.792C108.516 19.552 108.99 19.366 109.518 19.234C110.058 19.09 110.592 19.018 111.12 19.018ZM110.526 26.974C111.246 26.974 111.834 26.734 112.29 26.254C112.758 25.762 112.992 25.132 112.992 24.364V23.842H112.668C111.612 23.842 110.808 23.89 110.256 23.986C109.704 24.07 109.308 24.22 109.068 24.436C108.84 24.64 108.726 24.946 108.726 25.354C108.726 25.822 108.894 26.212 109.23 26.524C109.578 26.824 110.01 26.974 110.526 26.974ZM121.42 19.054C121.924 19.018 122.176 19.222 122.176 19.666C122.176 19.858 122.122 20.014 122.014 20.134C121.906 20.242 121.72 20.308 121.456 20.332L120.916 20.386C120.112 20.458 119.512 20.746 119.116 21.25C118.732 21.742 118.54 22.324 118.54 22.996V27.37C118.54 27.61 118.474 27.79 118.342 27.91C118.21 28.03 118.036 28.09 117.82 28.09C117.604 28.09 117.424 28.03 117.28 27.91C117.148 27.778 117.082 27.598 117.082 27.37V19.774C117.082 19.546 117.154 19.372 117.298 19.252C117.442 19.12 117.616 19.054 117.82 19.054C118.012 19.054 118.174 19.12 118.306 19.252C118.438 19.372 118.504 19.54 118.504 19.756V20.764C118.756 20.236 119.11 19.834 119.566 19.558C120.034 19.282 120.568 19.12 121.168 19.072L121.42 19.054ZM131.687 28.126C130.871 28.126 130.145 27.94 129.509 27.568C128.885 27.196 128.399 26.668 128.051 25.984C127.715 25.3 127.547 24.508 127.547 23.608C127.547 22.708 127.721 21.91 128.069 21.214C128.429 20.518 128.927 19.978 129.563 19.594C130.199 19.21 130.931 19.018 131.759 19.018C132.215 19.018 132.665 19.084 133.109 19.216C133.565 19.336 133.961 19.516 134.297 19.756C134.513 19.9 134.663 20.044 134.747 20.188C134.843 20.32 134.891 20.47 134.891 20.638C134.891 20.806 134.843 20.944 134.747 21.052C134.663 21.16 134.549 21.214 134.405 21.214C134.321 21.214 134.231 21.19 134.135 21.142C134.039 21.094 133.955 21.046 133.883 20.998C133.823 20.95 133.781 20.92 133.757 20.908C133.445 20.704 133.145 20.542 132.857 20.422C132.581 20.302 132.239 20.242 131.831 20.242C130.955 20.242 130.271 20.542 129.779 21.142C129.299 21.73 129.059 22.552 129.059 23.608C129.059 24.664 129.299 25.48 129.779 26.056C130.271 26.632 130.955 26.92 131.831 26.92C132.239 26.92 132.587 26.86 132.875 26.74C133.175 26.62 133.475 26.458 133.775 26.254C133.907 26.17 134.033 26.098 134.153 26.038C134.273 25.978 134.375 25.948 134.459 25.948C134.591 25.948 134.699 26.002 134.783 26.11C134.879 26.218 134.927 26.356 134.927 26.524C134.927 26.68 134.885 26.824 134.801 26.956C134.717 27.076 134.561 27.214 134.333 27.37C133.997 27.598 133.589 27.784 133.109 27.928C132.641 28.06 132.167 28.126 131.687 28.126ZM140.318 28.126C139.49 28.126 138.758 27.94 138.122 27.568C137.498 27.196 137.012 26.668 136.664 25.984C136.328 25.288 136.16 24.484 136.16 23.572C136.16 22.66 136.328 21.862 136.664 21.178C137.012 20.482 137.498 19.948 138.122 19.576C138.758 19.204 139.49 19.018 140.318 19.018C141.146 19.018 141.878 19.204 142.514 19.576C143.15 19.948 143.636 20.482 143.972 21.178C144.32 21.862 144.494 22.66 144.494 23.572C144.494 24.484 144.32 25.288 143.972 25.984C143.636 26.668 143.15 27.196 142.514 27.568C141.878 27.94 141.146 28.126 140.318 28.126ZM140.318 26.92C141.182 26.92 141.842 26.638 142.298 26.074C142.766 25.498 143 24.664 143 23.572C143 22.504 142.766 21.682 142.298 21.106C141.83 20.518 141.17 20.224 140.318 20.224C139.466 20.224 138.806 20.518 138.338 21.106C137.87 21.682 137.636 22.504 137.636 23.572C137.636 24.652 137.864 25.48 138.32 26.056C138.788 26.632 139.454 26.92 140.318 26.92ZM156.422 19.018C158.366 19.018 159.338 20.176 159.338 22.492V27.37C159.338 27.598 159.272 27.778 159.14 27.91C159.008 28.03 158.834 28.09 158.618 28.09C158.402 28.09 158.222 28.03 158.078 27.91C157.946 27.778 157.88 27.598 157.88 27.37V22.528C157.88 21.724 157.736 21.142 157.448 20.782C157.16 20.422 156.71 20.242 156.098 20.242C155.366 20.242 154.79 20.488 154.37 20.98C153.95 21.472 153.74 22.138 153.74 22.978V27.37C153.74 27.598 153.668 27.778 153.524 27.91C153.392 28.03 153.218 28.09 153.002 28.09C152.786 28.09 152.612 28.03 152.48 27.91C152.348 27.778 152.282 27.598 152.282 27.37V22.528C152.282 21.724 152.138 21.142 151.85 20.782C151.562 20.422 151.106 20.242 150.482 20.242C149.762 20.242 149.186 20.488 148.754 20.98C148.334 21.472 148.124 22.138 148.124 22.978V27.37C148.124 27.598 148.058 27.778 147.926 27.91C147.794 28.03 147.62 28.09 147.404 28.09C147.188 28.09 147.008 28.03 146.864 27.91C146.732 27.778 146.666 27.598 146.666 27.37V19.774C146.666 19.558 146.732 19.384 146.864 19.252C147.008 19.12 147.188 19.054 147.404 19.054C147.608 19.054 147.776 19.12 147.908 19.252C148.04 19.372 148.106 19.54 148.106 19.756V20.62C148.37 20.104 148.736 19.708 149.204 19.432C149.672 19.156 150.212 19.018 150.824 19.018C152.192 19.018 153.086 19.594 153.506 20.746C153.758 20.218 154.142 19.798 154.658 19.486C155.174 19.174 155.762 19.018 156.422 19.018ZM167.589 28.09C167.361 28.09 167.181 28.024 167.049 27.892C166.917 27.748 166.851 27.562 166.851 27.334V16.03C166.851 15.814 166.917 15.64 167.049 15.508C167.193 15.376 167.379 15.31 167.607 15.31H171.873C173.205 15.31 174.237 15.634 174.969 16.282C175.713 16.93 176.085 17.848 176.085 19.036C176.085 20.224 175.713 21.148 174.969 21.808C174.225 22.468 173.193 22.798 171.873 22.798H168.327V27.334C168.327 27.562 168.261 27.748 168.129 27.892C167.997 28.024 167.817 28.09 167.589 28.09ZM171.729 21.574C173.661 21.574 174.627 20.728 174.627 19.036C174.627 17.368 173.661 16.534 171.729 16.534H168.327V21.574H171.729ZM178.975 28.09C178.759 28.09 178.579 28.03 178.435 27.91C178.303 27.778 178.237 27.598 178.237 27.37V19.774C178.237 19.546 178.303 19.372 178.435 19.252C178.579 19.12 178.759 19.054 178.975 19.054C179.191 19.054 179.365 19.12 179.497 19.252C179.629 19.372 179.695 19.546 179.695 19.774V27.37C179.695 27.61 179.629 27.79 179.497 27.91C179.365 28.03 179.191 28.09 178.975 28.09ZM178.975 17.164C178.687 17.164 178.453 17.08 178.273 16.912C178.093 16.744 178.003 16.522 178.003 16.246C178.003 15.982 178.093 15.766 178.273 15.598C178.453 15.43 178.687 15.346 178.975 15.346C179.263 15.346 179.497 15.43 179.677 15.598C179.857 15.766 179.947 15.982 179.947 16.246C179.947 16.522 179.857 16.744 179.677 16.912C179.497 17.08 179.263 17.164 178.975 17.164ZM186.038 28.126C185.222 28.126 184.496 27.94 183.86 27.568C183.236 27.196 182.75 26.668 182.402 25.984C182.066 25.3 181.898 24.508 181.898 23.608C181.898 22.708 182.072 21.91 182.42 21.214C182.78 20.518 183.278 19.978 183.914 19.594C184.55 19.21 185.282 19.018 186.11 19.018C186.566 19.018 187.016 19.084 187.46 19.216C187.916 19.336 188.312 19.516 188.648 19.756C188.864 19.9 189.014 20.044 189.098 20.188C189.194 20.32 189.242 20.47 189.242 20.638C189.242 20.806 189.194 20.944 189.098 21.052C189.014 21.16 188.9 21.214 188.756 21.214C188.672 21.214 188.582 21.19 188.486 21.142C188.39 21.094 188.306 21.046 188.234 20.998C188.174 20.95 188.132 20.92 188.108 20.908C187.796 20.704 187.496 20.542 187.208 20.422C186.932 20.302 186.59 20.242 186.182 20.242C185.306 20.242 184.622 20.542 184.13 21.142C183.65 21.73 183.41 22.552 183.41 23.608C183.41 24.664 183.65 25.48 184.13 26.056C184.622 26.632 185.306 26.92 186.182 26.92C186.59 26.92 186.938 26.86 187.226 26.74C187.526 26.62 187.826 26.458 188.126 26.254C188.258 26.17 188.384 26.098 188.504 26.038C188.624 25.978 188.726 25.948 188.81 25.948C188.942 25.948 189.05 26.002 189.134 26.11C189.23 26.218 189.278 26.356 189.278 26.524C189.278 26.68 189.236 26.824 189.152 26.956C189.068 27.076 188.912 27.214 188.684 27.37C188.348 27.598 187.94 27.784 187.46 27.928C186.992 28.06 186.518 28.126 186.038 28.126ZM198.036 26.848C198.228 27.028 198.324 27.22 198.324 27.424C198.324 27.604 198.258 27.76 198.126 27.892C198.006 28.024 197.856 28.09 197.676 28.09C197.52 28.09 197.358 28.018 197.19 27.874L192.492 23.824V27.37C192.492 27.598 192.42 27.778 192.276 27.91C192.144 28.03 191.976 28.09 191.772 28.09C191.556 28.09 191.376 28.03 191.232 27.91C191.1 27.778 191.034 27.598 191.034 27.37V15.94C191.034 15.712 191.1 15.538 191.232 15.418C191.376 15.286 191.556 15.22 191.772 15.22C191.976 15.22 192.144 15.286 192.276 15.418C192.42 15.538 192.492 15.712 192.492 15.94V23.248L196.794 19.306C196.938 19.162 197.1 19.09 197.28 19.09C197.46 19.09 197.616 19.156 197.748 19.288C197.88 19.42 197.946 19.576 197.946 19.756C197.946 19.96 197.862 20.14 197.694 20.296L194.148 23.464L198.036 26.848ZM200.988 28.09C200.76 28.09 200.58 28.024 200.448 27.892C200.316 27.748 200.25 27.562 200.25 27.334V16.03C200.25 15.814 200.316 15.64 200.448 15.508C200.592 15.376 200.778 15.31 201.006 15.31H205.272C206.604 15.31 207.636 15.634 208.368 16.282C209.112 16.93 209.484 17.848 209.484 19.036C209.484 20.224 209.112 21.148 208.368 21.808C207.624 22.468 206.592 22.798 205.272 22.798H201.726V27.334C201.726 27.562 201.66 27.748 201.528 27.892C201.396 28.024 201.216 28.09 200.988 28.09ZM205.128 21.574C207.06 21.574 208.026 20.728 208.026 19.036C208.026 17.368 207.06 16.534 205.128 16.534H201.726V21.574H205.128ZM215.024 19.018C217.22 19.018 218.318 20.17 218.318 22.474V27.37C218.318 27.586 218.252 27.76 218.12 27.892C218 28.024 217.832 28.09 217.616 28.09C217.4 28.09 217.226 28.024 217.094 27.892C216.962 27.76 216.896 27.586 216.896 27.37V26.506C216.668 27.022 216.32 27.424 215.852 27.712C215.384 27.988 214.844 28.126 214.232 28.126C213.668 28.126 213.146 28.012 212.666 27.784C212.198 27.556 211.826 27.238 211.55 26.83C211.274 26.422 211.136 25.972 211.136 25.48C211.136 24.82 211.304 24.31 211.64 23.95C211.976 23.578 212.528 23.314 213.296 23.158C214.064 22.99 215.132 22.906 216.5 22.906H216.896V22.312C216.896 21.592 216.746 21.064 216.446 20.728C216.158 20.392 215.684 20.224 215.024 20.224C214.208 20.224 213.38 20.446 212.54 20.89C212.216 21.094 211.988 21.196 211.856 21.196C211.712 21.196 211.592 21.142 211.496 21.034C211.4 20.926 211.352 20.788 211.352 20.62C211.352 20.452 211.4 20.308 211.496 20.188C211.604 20.056 211.772 19.924 212 19.792C212.42 19.552 212.894 19.366 213.422 19.234C213.962 19.09 214.496 19.018 215.024 19.018ZM214.43 26.974C215.15 26.974 215.738 26.734 216.194 26.254C216.662 25.762 216.896 25.132 216.896 24.364V23.842H216.572C215.516 23.842 214.712 23.89 214.16 23.986C213.608 24.07 213.212 24.22 212.972 24.436C212.744 24.64 212.63 24.946 212.63 25.354C212.63 25.822 212.798 26.212 213.134 26.524C213.482 26.824 213.914 26.974 214.43 26.974ZM227.305 19.504C227.437 19.216 227.647 19.072 227.935 19.072C228.115 19.072 228.277 19.132 228.421 19.252C228.565 19.372 228.637 19.522 228.637 19.702C228.637 19.81 228.613 19.906 228.565 19.99L223.507 30.898C223.447 31.03 223.357 31.132 223.237 31.204C223.129 31.276 223.015 31.312 222.895 31.312C222.715 31.312 222.553 31.252 222.409 31.132C222.277 31.024 222.211 30.88 222.211 30.7C222.211 30.604 222.235 30.508 222.283 30.412L223.543 27.694L219.979 19.99C219.931 19.906 219.907 19.816 219.907 19.72C219.907 19.54 219.985 19.384 220.141 19.252C220.309 19.12 220.489 19.054 220.681 19.054C220.801 19.054 220.915 19.09 221.023 19.162C221.143 19.234 221.233 19.336 221.293 19.468L224.299 26.218L227.305 19.504Z" fill="white"/>
</g>
<defs>
<filter id="filter0_d" x="-2" y="2" width="289" height="44" filterUnits="userSpaceOnUse" color-interpolation-filters="sRGB">
<feFlood flood-opacity="0" result="BackgroundImageFix"/>
<feColorMatrix in="SourceAlpha" type="matrix" values="0 0 0 0 0 0 0 0 0 0 0 0 0 0 0 0 0 0 127 0"/>
<feOffset dx="2" dy="2"/>
<feGaussianBlur stdDeviation="2"/>
<feColorMatrix type="matrix" values="0 0 0 0 0 0 0 0 0 0 0 0 0 0 0 0 0 0 0.25 0"/>
<feBlend mode="normal" in2="BackgroundImageFix" result="effect1_dropShadow"/>
<feBlend mode="normal" in="SourceGraphic" in2="effect1_dropShadow" result="shape"/>
</filter>
<clipPath id="clip0">
<rect width="289" height="44" fill="white"/>
</clipPath>
</defs>
</svg>
