<svg width="29" height="21" viewBox="0 0 29 21" fill="none" xmlns="http://www.w3.org/2000/svg">
<path d="M26.4263 5.26872C25.6704 5.01398 24.1798 4.70242 22.6901 5.47794L8.29473 12.9717C7.94378 13.1544 7.53404 13.1656 7.17053 13.0026L3.50364 11.358C3.03679 11.1486 2.51055 11.1631 2.05983 11.3977L0.725745 12.0922C0.609325 12.1528 0.530917 12.2678 0.516422 12.3993C0.501928 12.5307 0.553233 12.6615 0.653339 12.7483L3.68137 15.3732L2.32483 16.0794C2.13109 16.1803 2.05672 16.4209 2.15872 16.6168C2.26072 16.8128 2.50048 16.8899 2.69422 16.789L3.51581 16.3613C3.53581 16.4748 3.5729 16.5871 3.6289 16.6947C3.85812 17.135 4.33739 17.3792 4.82153 17.3022C6.27923 17.0705 9.96492 16.3779 12.6996 14.9543L16.0987 13.1848C16.1028 13.1931 16.1066 13.2014 16.1108 13.2096C16.4304 13.8234 17.1841 14.0658 17.791 13.7498L20.0407 12.5787C20.4408 12.3704 20.595 11.8716 20.3843 11.4669L19.9895 10.7085C19.7788 10.3037 19.2818 10.1439 18.8816 10.3523L17.419 11.1137L11.6181 12.6975C11.4589 12.741 11.3442 12.8796 11.3302 13.0453C11.3162 13.211 11.406 13.369 11.5554 13.4417L12.7533 14.0244L12.3301 14.2447C11.453 14.7013 8.9529 15.8363 4.69069 16.5139C4.54469 16.5371 4.39993 16.463 4.33044 16.3295C4.24186 16.1593 4.30668 15.9496 4.47493 15.862L23.0594 6.18752C23.6873 5.86066 24.3203 5.76934 24.8747 5.78654L24.2883 6.0918C24.0946 6.19265 24.0202 6.43323 24.1222 6.62922C24.2242 6.82516 24.464 6.90226 24.6577 6.8014L26.1574 6.0207C26.1586 6.02009 26.1596 6.01932 26.1608 6.01871C26.1673 6.02089 26.1742 6.02307 26.1807 6.02526C26.1932 6.02951 26.2039 6.04055 26.2001 6.05359C26.0744 6.48163 25.7282 7.27007 24.8216 7.74203L20.9534 9.75567C20.7597 9.85652 20.6853 10.0971 20.7873 10.2931C20.8893 10.489 21.1291 10.5661 21.3228 10.4653L25.191 8.45163C26.3556 7.84539 26.7995 6.83473 26.9606 6.28628C27.0862 5.859 26.8515 5.41205 26.4263 5.26872ZM19.2879 11.0738L19.6827 11.8322C19.6897 11.8457 19.6846 11.8622 19.6712 11.8692L17.4216 13.0403C17.2015 13.1548 16.9282 13.0669 16.8124 12.8444C16.6966 12.6219 16.7813 12.3476 17.0014 12.2331L19.251 11.062C19.2643 11.055 19.2808 11.0603 19.2879 11.0738ZM12.8523 13.1894L16.0038 12.329C16.0035 12.3303 16.0032 12.3316 16.0029 12.3329L13.6304 13.5679L12.8523 13.1894ZM2.42923 12.1073C2.66562 11.9842 2.94168 11.9767 3.18655 12.0865L6.84403 13.7269L4.437 14.9799L1.6133 12.532L2.42923 12.1073Z" fill="black"/>
<path d="M23.3284 7.04276C23.2264 6.84676 22.9867 6.76972 22.7929 6.87058L22.7891 6.87255C22.5954 6.97341 22.5229 7.21301 22.6249 7.40901C22.7269 7.60496 22.9685 7.68108 23.1623 7.5802C23.3561 7.47932 23.4305 7.23871 23.3284 7.04276Z" fill="black"/>
<path d="M20.329 8.60419C20.227 8.40819 19.9872 8.33114 19.7935 8.432L19.7897 8.43395C19.596 8.53481 19.5235 8.77441 19.6255 8.97041C19.7275 9.16636 19.9691 9.24249 20.1629 9.14163C20.3566 9.04077 20.431 8.80014 20.329 8.60419Z" fill="black"/>
<path d="M16.7901 9.99547C16.5964 10.0963 16.5238 10.3359 16.6259 10.5319C16.7279 10.7279 16.9695 10.804 17.1633 10.7032C17.357 10.6023 17.4314 10.3617 17.3294 10.1657C17.2273 9.96971 16.9876 9.89267 16.7939 9.99352L16.7901 9.99547Z" fill="black"/>
<path d="M8.54158 14.2893L8.53779 14.2912C8.34405 14.3921 8.27152 14.6317 8.37355 14.8277C8.47555 15.0237 8.7172 15.0998 8.91099 14.9989C9.10478 14.898 9.17911 14.6574 9.07711 14.4615C8.97508 14.2655 8.73533 14.1884 8.54158 14.2893Z" fill="black"/>
<path d="M21.8273 7.82355C21.7253 7.62755 21.4855 7.5505 21.2918 7.65136L21.288 7.65331C21.0943 7.75417 21.0218 7.99378 21.1238 8.18977C21.2258 8.38573 21.4674 8.46184 21.6612 8.36099C21.8549 8.26013 21.9293 8.0195 21.8273 7.82355Z" fill="black"/>
<path d="M18.2885 9.21471C18.0948 9.31557 18.0222 9.55518 18.1243 9.75118C18.2263 9.94713 18.4679 10.0232 18.6617 9.92239C18.8554 9.82153 18.9298 9.5809 18.8278 9.38495C18.7258 9.18895 18.486 9.11191 18.2923 9.21276L18.2885 9.21471Z" fill="black"/>
<path d="M10.0417 13.5087C9.84795 13.6095 9.77542 13.8491 9.87745 14.0451C9.97946 14.2411 10.2211 14.3172 10.4148 14.2163C10.6086 14.1155 10.683 13.8748 10.581 13.6789C10.4789 13.4829 10.2392 13.4059 10.0454 13.5067L10.0417 13.5087Z" fill="black"/>
</svg>
